<svg xmlns="http://www.w3.org/2000/svg" viewBox="0 0 146.573 118.377" height="447.408" width="553.977"><path d="M96.527 86.289c-2.53 5.982-5.224 12.22-9.748 16.744-4.524 4.525-5.388 8.756-11.37 11.286-5.982 2.53-15.72 3.558-22.625 3.558-6.903 0-16.08-2.116-22.062-4.646-5.982-2.53-10.985-6.292-15.509-10.816-4.524-4.524-6.456-8.965-8.986-14.947C3.697 81.486.5 74.065.5 67.161c0-6.903 1.396-13.516 3.926-19.498 2.53-5.982 6.216-11.342 10.74-15.866 4.524-4.524 11.218-7.543 17.2-10.073 5.982-2.531 11.93-3.817 18.834-3.817 6.903 0 14.407 2.677 20.39 5.208 5.981 2.53 12.837 5.013 17.361 9.537 4.524 4.524 5.212 8.908 7.742 14.89 6.43 19.922 7.599 19.809-.166 38.747z" stroke="#000" stroke-dasharray=".1,.1"/><path d="M123.13 33.493c-.053-.076-.063-.141-.02-.143.04-.001.05-.116.022-.253-.031-.144-.015-.275.038-.312.072-.05.067-.07-.025-.095-.09-.025-.104-.05-.063-.105.043-.057.022-.082-.096-.115-.115-.033-.139-.06-.099-.113.03-.039.036-.094.016-.124-.02-.029-.05-.021-.068.018-.018.04-.042.025-.057-.036-.015-.059-.054-.088-.088-.064-.046.031-.067.003-.08-.106-.013-.12-.034-.138-.103-.09-.069.048-.082.036-.068-.061.019-.125.202-.152.255-.039.013.03.06.045.105.033.052-.014.04-.054-.035-.12-.064-.053-.084-.1-.046-.103.038-.003.106-.058.15-.121.065-.092.029-.09-.177.005-.161.075-.279.092-.312.044-.03-.043-.101-.044-.16-.004-.058.04-.172.048-.254.018-.146-.054-.523-.005-.598.078-.022.023-.202.103-.401.178-.2.074-.527.224-.73.333-.202.108-.396.184-.431.169-.036-.016-.119.009-.185.053-.066.045-.318.11-.559.147-.241.035-.48.093-.531.128-.052.034-.126.048-.165.031-.039-.017-.043-.05-.01-.074.075-.052-.12-.277-.2-.23a3.534 3.534 0 01-.344.131c-.157.054-.336.154-.396.223a.833.833 0 01-.32.192 7.208 7.208 0 00-.555.217c-.522.228-.819.322-.854.272-.036-.053 2.786-1.951 3.52-2.369.388-.22.52-.325.626-.494.073-.118.143-.227.155-.242a4.23 4.23 0 00.136-.202c.062-.097.163-.188.223-.202.06-.014.802-.493 1.649-1.063s1.667-1.089 1.823-1.152c.155-.064.596-.29.98-.504.383-.214.76-.396.84-.405.078-.01.254-.111.391-.227.137-.115.277-.197.31-.182a.07.07 0 00.092-.04c.016-.036.047-.04.07-.009.021.032.054.04.073.02.074-.087.61-.312.64-.269.037.053.51-.143.652-.27.052-.048.175-.068.274-.047.098.021.222.013.276-.019.053-.032.248-.154.433-.272.184-.118.453-.254.597-.303.143-.048.363-.138.488-.2.125-.061.23-.08.231-.043.006.117.142.055 1.143-.524.053-.03.108-.03.122.003.014.033.085.039.158.015.072-.023.222-.044.333-.044.146-.001.377-.108.825-.38.343-.21.678-.421.745-.473a.875.875 0 01.35-.122c.128-.016.226-.06.226-.102-.001-.102.144-.302.149-.205.005.102.056.062.147-.117.183-.362 1.653-1.2 1.934-1.104.087.03.12.068.093.105-.024.032-.03.08-.01.106.018.027.058.012.089-.034.03-.045.09-.067.132-.049.112.05-.223.263-.462.295-.11.014-.322.085-.472.156l-.381.178c-.06.027-.085.08-.058.12.035.05-.022.112-.195.213-.189.11-.214.14-.109.131.074-.005.137.018.138.053.004.074.346-.084.966-.448.349-.205.45-.29.447-.373-.003-.078.009-.089.043-.04.071.1.388-.143.431-.33.021-.088.054-.137.073-.108.022.03.203-.086.46-.298.233-.191.598-.489.812-.661.213-.172.449-.397.523-.5a.89.89 0 01.289-.256c.084-.037.151-.104.15-.147-.003-.049-.02-.043-.046.014-.025.058-.042.063-.045.013-.005-.095.214-.335.512-.562.175-.134.198-.181.136-.282-.067-.109-.117-.1-.465.086a4.392 4.392 0 00-.517.314l-.128.106.09-.179c.157-.31.362-.537.815-.902.242-.195.571-.505.732-.689.37-.423 1.92-1.507 2.064-1.445.05.022.106.001.127-.044.051-.12 1.042-.833 1.046-.754.004.074.012.07.74-.403.515-.333.74-.461 1.56-.888.373-.194.557-.358.677-.604.05-.103.015-.117-.27-.104-.23.01-.466.085-.786.252-.547.284-1.082.536-1.482.697-.239.096-.3.096-.336-.002-.025-.07-.003-.13.053-.143.053-.013.078-.05.055-.084s-.085-.031-.138.005c-.081.055-.089.05-.05-.045.028-.069.02-.092-.022-.064-.037.025-.078-.002-.092-.059-.018-.072-.11-.088-.3-.051l-.276.052.51-.402c.28-.22.658-.5.84-.621.181-.121.327-.223.325-.227a2.463 2.463 0 00-.2-.057c-.109-.027-.185-.033-.171-.013.014.02-.055.039-.153.041-.098.003-.38.102-.626.222-.246.119-.568.25-.716.29-.148.04-.358.134-.468.208-.306.207-1.208.537-1 .366.026-.022.089-.084.14-.14.05-.055.116-.127.148-.16.105-.115.077-.173-.064-.13a1.083 1.083 0 01-.374.01c-.128-.018-.288.004-.355.05a.326.326 0 01-.236.053c-.094-.027-.062-.078.176-.286.159-.14.355-.316.435-.393.19-.182 1.045-.767 1.128-.77.113-.007.752-.415.72-.46-.016-.025-.088-.05-.159-.056-.07-.006-.146-.037-.168-.068-.022-.031-.012-.052.021-.046.033.006.075-.039.092-.1.017-.062.047-.088.067-.06.02.03.073.028.118-.004.13-.09.055-.124-.18-.08-.265.05-.262-.007.015-.303.253-.271.24-.412-.034-.35-.282.063-1.399.666-1.993 1.074-.278.192-.583.377-.676.412l-.17.064.067-.234c.038-.13.11-.264.159-.3.127-.093.106-.207-.053-.288-.167-.087-.812-.004-1.002.127-.08.056-.143.065-.146.02-.003-.043.041-.109.096-.147.093-.064.101-.27.015-.352-.088-.084.852-.573.996-.52.11.04 1.646-.715 1.747-.86l.097-.139-.173.02c-.096.01-.616.228-1.155.482-.988.465-1.275.51-.695.109.178-.124.32-.268.343-.35.033-.114.137-.188.616-.44.88-.463 1.4-.721 1.534-.764.089-.028.1-.06.04-.116-.087-.083-.334-.08-.664.009-.284.076-.192-.094.133-.246.14-.066.379-.179.528-.251l.272-.132-.34-.054a2.06 2.06 0 01-.354-.074c-.008-.011.127-.142.299-.292.405-.353.555-.64.428-.816-.067-.094-.507.023-.852.227a8.898 8.898 0 01-.754.367 9.264 9.264 0 00-.895.455 9.63 9.63 0 01-.765.408c-1.253.577-1.538.702-1.605.708-.042.003.016-.097.128-.222.113-.127.181-.261.154-.3-.064-.092-.751.088-1.311.344-.273.125-.497.185-.6.16-.093-.021-.327.032-.532.121-.465.203-.507.119-.176-.354.071-.1.099-.204.061-.23-.085-.057-.421-.003-.556.09-.056.039-.103.035-.105-.008-.003-.042.178-.204.401-.358.368-.255.477-.412.25-.361-.204.046.616-.47 1.06-.668.554-.246.793-.469.68-.633-.052-.075-.263-.075-.793-.002-.499.07-.71.072-.682.005.052-.126-.084-.123-.533.008-.634.187-1.24.185-1.293-.005-.035-.129-.275-.046-1.19.409-.453.226-.927.426-1.052.443a1.991 1.991 0 00-.515.186c-.439.231-1.35.572-1.53.57a.717.717 0 00-.326.11c-.093.061-.232.124-.31.14-.112.022-.098-.004.071-.13.453-.34.668-.556.674-.679.004-.084.058-.147.157-.181.13-.046.131-.052.013-.047a.397.397 0 00-.222.088.348.348 0 01-.189.085c-.062.003-.14.072-.19.17-.066.129-.117.167-.232.172-.093.004-.146.035-.144.083.002.042-.135.174-.305.293-.17.119-.346.294-.391.389-.099.206-.149.25-.2.178-.02-.03.001-.081.048-.113.047-.033.056-.072.022-.087-.035-.015-.022-.077.03-.136.051-.06.06-.134.02-.165-.075-.056-.348.07-1.148.53-.722.415-.933.515-.97.462-.02-.028 0-.077.046-.108.046-.032.048-.105.006-.166-.055-.08-.112-.084-.212-.015-.156.109-.241.043-.123-.094.044-.052.321-.24.616-.422.858-.525 1.178-.769 1.286-.982.055-.108.123-.198.15-.2.028-.001-.008-.064-.079-.14-.154-.165-.097-.247.452-.65.328-.24.349-.267.19-.247-.26.033-1.061.377-1.497.642-.223.136-.456.231-.564.23-.23 0-.324.063-.357.239-.014.08-.122.205-.254.295-.405.277-2.019 1.167-2.265 1.249-.23.076-.242.071-.325-.135-.053-.13-.124-.222-.182-.233-.066-.011-.092-.053-.085-.134.021-.247-.167-.165-.944.412-.604.448-.805.57-.974.593-.18.024-.843.345-1.263.61a5 5 0 01-.418.212l-.306.14.218-.21c.12-.115.52-.4.89-.634.371-.234.893-.581 1.16-.772.267-.19.82-.519 1.228-.73.809-.416 1.62-.877 1.948-1.107.115-.08.238-.135.275-.122.037.013.146-.026.242-.087s.19-.09.207-.065c.017.024.075-.01.13-.075.077-.093.09-.094.056-.005-.036.098-.029.105.054.049.053-.036.115-.038.138-.005.026.037.07-.01.116-.12.081-.201.136-.262.141-.157.002.038.062.048.132.022.073-.026.109-.074.084-.11-.025-.036.043-.122.161-.204.13-.09.216-.114.237-.067.023.051.09.023.216-.09.207-.187.343-.469.275-.57-.03-.043-.006-.05.064-.022.085.035.085.01.004-.109-.135-.197-.341-.303-.448-.23-.045.032-.084.023-.087-.02-.003-.043-.05-.05-.105-.014-.185.117-.322.163-.498.167-.159.004-.396.209-.338.292.01.015.043-.007.072-.051.03-.043.118-.06.196-.037.123.036.128.042.033.048-.084.005-.085.024-.002.08.064.044.092.111.068.167-.058.138-.155.186-.107.053.032-.086-.005-.072-.147.06-.105.096-.254.176-.332.18-.108.005-.151.036-.177.128-.027.098-.055.109-.143.054a.4.4 0 01-.129-.114c-.01-.026-.054-.023-.097.007-.042.03-.106.032-.141.005-.035-.027-.141-.006-.236.045-.094.052-.225.076-.29.053-.065-.023-.126-.01-.135.03-.008.038-.031.016-.048-.05-.04-.146-.151-.085-.115.064.023.094.006.104-.14.084-.158-.02-.163-.015-.096.083.06.087.053.097-.038.06-.164-.068-.17-.102-.05-.24.076-.087.083-.158.022-.234-.098-.12-.353-.085-.563.08-.196.152-.425.207-.488.115-.04-.058-.107-.038-.25.077-.208.168-.62.362-.805.38-.091.009-.093-.005-.007-.07.058-.043.221-.175.361-.293.434-.364 1.051-.79 1.305-.898.174-.075.22-.114.162-.14-.05-.021-.044-.043.017-.058.056-.013.094-.114.091-.241-.004-.156-.028-.211-.086-.194-.055.016-.066-.025-.036-.122.04-.132.032-.132-.1-.003-.078.078-.122.106-.097.063.093-.16-.03-.175-.241-.028-.138.095-.201.176-.172.22.034.05.02.057-.052.026-.061-.026-.096-.012-.094.038.004.085-.068.128-.289.173-.075.016-.22.082-.32.148-.229.152-.395.068-.172-.087.089-.061.145-.153.131-.211-.017-.07-.06-.08-.13-.032-.057.04-.145.056-.195.035-.13-.054-.433-.017-.465.059-.016.034-.06.049-.1.031-.04-.017-.14.015-.224.073a2.562 2.562 0 01-.507.22c-.31.101-.346.1-.268-.013.05-.07.493-.403.985-.738.493-.334.914-.65.937-.702.023-.053.074-.078.12-.058.092.04 1.824-1.079 1.82-1.176-.002-.034.044-.074.103-.088.072-.018.096 0 .072.054-.02.044.04.028.13-.035.092-.063.15-.138.13-.166-.02-.03.023-.047.095-.041.072.007.136-.018.143-.054.007-.036-.081-.07-.195-.075l-.207-.009.154-.068c.136-.06.137-.065.01-.044a.86.86 0 00-.555.41c-.091.183-.295.284-.366.18-.033-.047-.155.007-.403.175-.223.153-.34.266-.314.304.022.033-.017.04-.089.017-.094-.03-.265.038-.617.243a8.43 8.43 0 01-.885.447 4.515 4.515 0 00-.575.276 3.005 3.005 0 01-.502.23c-.303.107-.276.084.433-.366.416-.263.794-.504.839-.535.045-.03.65-.363 1.343-.739a44.851 44.851 0 001.661-.936c.221-.139.403-.227.405-.195.002.032.11-.015.238-.104.13-.09.48-.28.78-.423.515-.246 1.657-.922 1.473-.872-.047.013-.087-.008-.09-.048-.001-.039-.073-.025-.158.032a1.11 1.11 0 01-.417.132c-.145.016-.328.04-.407.053-.26.045-3.844 1.738-4.648 2.196-.238.136-.933.521-1.544.856-.61.335-1.412.783-1.782.995-.37.213-.814.433-.989.49-.228.074-.315.126-.312.189.004.08-.58.46-1.326.866-.113.061-.461.266-.774.455a16.95 16.95 0 01-1.99 1.006c-.15.06-.285.14-.301.176-.016.037-.424.26-.906.496-.713.349-.89.457-.954.582-.065.125-.202.206-.755.447-.92.4-2.12.925-2.719 1.186-.272.12-.67.287-.886.374a3.722 3.722 0 00-.572.28 2.106 2.106 0 01-.479.217c-.277.084-.799.326-2.167 1.003-.703.348-.847.415-1.582.742-.34.151-.89.404-1.224.562l-.79.373c-.71.335-.83.421-.875.626-.024.11-.025.23-.002.263.024.034.023.072-.002.084-.024.012-.099.064-.165.115-.1.077-.1.103.005.156.153.079.146.183-.011.17-.177-.016-.093.05.139.11a.738.738 0 00.446-.06c.205-.095.238-.093.228.018-.014.167.064.123-3.722 2.117-.26.137-.714.398-1.008.581-.295.183-.836.502-1.203.709-.367.207-.845.485-1.063.619a4.708 4.708 0 01-.651.335c-.14.05-.63.35-1.087.663-.457.314-.872.583-.921.597-.121.034-1.445.852-1.74 1.074-.13.098-.252.238-.27.312-.038.164-.293.354-1.542 1.15-.574.366-1.12.673-1.322.743-.262.091-.639.327-1.603 1.004a98.6 98.6 0 01-2.597 1.748c-1.49.964-1.412.91-2.876 2.019-.947.718-1.51 1.11-2.393 1.667-.155.097-.246.136-.203.086.043-.05.06-.117.04-.148-.027-.038-.186.06-.468.286-.235.189-.95.741-1.589 1.228a82.93 82.93 0 00-1.804 1.413 171.97 171.97 0 01-2.712 2.197c-1.87 1.478-2.866 2.241-3.925 3.006-.488.352-1.085.801-1.325.998-.241.197-.611.474-.823.617-.212.143-.614.453-.893.69-.28.237-1.226.944-2.104 1.57-.878.628-1.688 1.24-1.8 1.36-.113.121-.388.367-.612.546-.225.18-.476.392-.56.472-.286.276-.764.66-1.485 1.192-.634.468-1.23.952-2.091 1.696-.139.12-.334.284-.433.365-.099.08-.353.29-.565.465-.211.175-.57.469-.797.653a5.04 5.04 0 00-.429.37c-.009.02-.145.148-.303.284a3.132 3.132 0 00-.346.333c-.032.048-.27.244-.53.436-.711.529-.71.528-.65.616.032.045.031.1 0 .122-.032.022-.06-.002-.063-.051-.003-.062-.027-.059-.075.011a.88.88 0 01-.19.186c-.081.056-.098.12-.053.198.08.137.114.122.148-.063.035-.193.169-.272.213-.127.022.072.037.081.039.024.003-.063.15-.177.465-.358.541-.311.92-.59 1.574-1.162.263-.229.604-.523.758-.653.153-.13.301-.266.328-.302.028-.036.09-.037.139-.004.065.045.125.02.23-.092.166-.178.28-.281.766-.691.196-.166.365-.32.375-.344.022-.05.748-.558 1.76-1.231.642-.427 1.067-.768 1.346-1.077.157-.175 1.458-1.104 1.487-1.062.015.022-.126.171-.314.333-.187.162-.383.338-.435.391-.363.374-1.425 1.247-2.313 1.9-.206.151-.388.31-.406.352-.03.07-1.608 1.355-1.714 1.395a5.258 5.258 0 00-.428.338c-.325.273-1.168.952-1.384 1.116-.078.059-.039.136.067.13.075-.003.492-.28.846-.562.109-.086.195-.203.192-.26-.004-.076.083-.15.342-.287a2.81 2.81 0 01.398-.19c.029-.003.063-.066.077-.143.014-.077.053-.128.087-.113.065.028 1.15-.754 1.43-1.032.093-.09.264-.239.38-.329.117-.09.247-.23.289-.312.06-.118.086-.133.126-.075.03.043.127.029.237-.036a12.503 12.503 0 001.507-1.055c.325-.266.474-.364.446-.292-.116.293.336.085.915-.42.513-.45.61-.521.876-.651a1.4 1.4 0 00.38-.277c.19-.224 1.328-1.174 1.863-1.556.252-.18.606-.455.787-.61.18-.156.553-.457.827-.67.274-.212.915-.727 1.424-1.145a74.044 74.044 0 011.703-1.35c.697-.531.788-.586.875-.526.083.057.187.004.703-.356.334-.232.73-.479.882-.548l.276-.125-.367.343a6.442 6.442 0 01-.559.475c-.105.072-.509.406-.896.743-.388.337-1.14.954-1.672 1.37-.531.418-1.012.81-1.07.87-.056.06-.583.478-1.171.927a136.886 136.886 0 00-2.346 1.826c-.157.126-.7.552-1.205.946-.505.395-.947.753-.98.796a5.004 5.004 0 00-.143.196c-.044.064-.17.188-.28.276-.109.089-.2.22-.202.29-.003.104-.13.223-.62.579-.34.246-.631.48-.648.519-.018.039-.206.213-.418.386a87.913 87.913 0 01-2.528 1.997c-.293.217-.896.71-1.34 1.093-.443.385-1.021.86-1.284 1.057-1.82 1.36-3.252 2.48-3.977 3.107-.25.216-.695.584-.99.816-.294.233-.534.453-.532.49.002.036.086.012.187-.054.1-.066.256-.164.345-.216.088-.053.16-.12.159-.15-.002-.03.105-.093.237-.139.134-.046.386-.208.572-.366.182-.156 1.208-.904 2.28-1.662a169.731 169.731 0 002.822-2.037c.858-.645 1.123-.797.586-.336-.15.127-.275.252-.279.277-.012.065.254.023.435-.069.21-.107.319-.08.158.04-.07.052-.431.34-.802.637-.37.297-1.111.865-1.646 1.261-.88.652-.966.73-.907.817.083.12-.117.3-1.404 1.266-.519.39-.942.738-.94.774.002.036-.104.14-.236.23-.448.31-.218.374.417.116.18-.072.404-.193.5-.267.639-.496.539-.269-.146.333-.276.243-.665.572-.865.731-.2.16-.555.46-.789.666a27.11 27.11 0 01-1.082.882c-.445.344-.659.543-.662.617-.003.06-.164.243-.362.409-.196.164-.36.346-.366.403-.004.058-.176.245-.38.417-.206.172-.403.386-.44.477-.042.104-.251.305-.566.545-.678.517-1.184.958-1.18 1.029.004.074.532-.183.574-.279.017-.04.047-.048.067-.02.02.029-.04.127-.13.22-.18.182-.173.277.019.23.226-.053.052.228-.44.715-.414.409-.64.717-.42.571.206-.137-.042.177-.346.437-.18.155-.34.325-.355.378-.015.053-.165.228-.334.39-.468.45-.415.514.152.184.211-.123.427-.203.517-.192.125.016.226-.042.55-.313.657-.552.805-.636 1.007-.569.099.033.181.084.183.114.001.03-.151.186-.339.347-.187.16-.352.329-.365.373-.014.044-.13.178-.258.298-.35.329-.217.35.235.038.22-.152.43-.27.47-.264.037.007.279-.133.535-.31.325-.225.489-.308.538-.272.048.036.005.098-.138.197-.115.08-.28.227-.365.327-.086.1-.353.341-.594.536-.24.195-.45.396-.464.447-.015.052-.05.09-.08.084-.03-.006-.096.05-.149.123-.074.103-.003.081.31-.096.37-.209.821-.404 1.087-.469.168-.04 0 .158-.565.67-.28.252-.499.473-.486.49.012.019-.145.133-.348.256-.297.179-.359.238-.315.302.069.1.353.141.457.068.063-.045.056-.054-.042-.05-.1.002-.104-.008-.021-.065.053-.038.137-.04.187-.006.078.053.182-.007.705-.405.655-.499.847-.577.826-.341-.035.396-.7 1.254-1.285 1.66-.353.244-.492.438-.404.564.043.064.142.02.476-.213.232-.162.502-.388.6-.502.098-.115.638-.543 1.2-.951.992-.723 1.022-.74 1.104-.64.08.1.066.222-.038.322l-.455.458a23.15 23.15 0 01-2.146 1.935c-.678.537-.877.767-.721.835a.072.072 0 00.094-.04c.016-.038.046-.031.065.014.02.046.075.05.124.01.05-.04.091-.047.093-.013.002.033.097.019.212-.033.249-.11.37-.048.368.19 0 .128.028.183.107.205.128.036.123.126-.015.22-.055.039-.093.08-.084.093a.743.743 0 01.045.142c.027.11.066.089.49-.253.253-.205.543-.45.643-.546.145-.139.194-.157.24-.09.033.047.114.08.181.074.174-.017.316.35.203.52-.08.123-.079.126.03.061.114-.068.114-.068.037.054-.075.12.087.036.654-.336.237-.155.464-.204.527-.113.034.05.11.04.204-.024.083-.057.217-.127.298-.156.138-.049.144-.044.1.088a.592.592 0 01-.193.245c-.082.058-.25.303-.376.545-.126.244-.307.494-.406.563-.33.228-.797.654-.743.678.029.013.009.049-.045.08a.134.134 0 00-.052.164c.058.137.523.121.669-.023.058-.058.133-.084.167-.06.079.06.73-.358.938-.602.088-.103.625-.52 1.194-.925.96-.685 1.266-.855.954-.531-.071.073-.222.235-.336.359-.114.124-.31.298-.437.388-.127.089-.213.187-.192.217.02.03-.001.08-.048.113a.631.631 0 00-.156.197c-.07.136-.068.137.103.112.301-.043.305.11.011.49-.15.194-.26.397-.244.45a.294.294 0 01.003.163c-.045.112.171.211.24.11.036-.052.06-.068.054-.037-.006.03.094.075.222.098.168.03.299 0 .472-.11.132-.083.24-.13.242-.101.002.028.23-.124.506-.337.403-.31.533-.384.652-.368.165.021.727-.312.961-.57.09-.098.173-.144.222-.123.043.019.136-.006.207-.055.164-.113.337-.156.38-.093.019.027-.001.073-.045.104-.043.03-.074.106-.068.169.007.071-.158.288-.435.571-.545.559-.879 1.067-.756 1.15.047.033.111.022.143-.024.031-.046.059-.051.06-.012.002.038.121.102.264.14.192.053.284.043.346-.04.048-.06.087-.078.09-.039.002.04.09.014.197-.055.106-.069.394-.202.64-.297l.448-.17-.032.213c-.018.118-.055.23-.083.249-.027.02-.107.133-.176.253-.12.21-.118.221.045.288.107.043.159.095.139.14a.08.08 0 00.043.105c.048.02.073-.005.07-.075-.002-.07.025-.097.076-.08a.897.897 0 00.298-.007l.218-.034-.16.138c-.173.15-.176.358-.005.316.058-.014.11-.048.115-.076.005-.028.122-.062.26-.075.14-.013.358-.07.487-.128.129-.057.29-.094.358-.082.162.03.198.001.615-.479.374-.43.51-.508.814-.467.172.024.218 0 .466-.25.326-.328 1.024-.824 1.028-.732.002.036-.154.22-.347.408-.491.48-.54.545-.41.538.227-.012-.323.71-.964 1.268-.174.15-.314.3-.312.334.002.034.1.09.218.127.198.061.213.078.194.224a.48.48 0 000 .188c.047.067.903-.668 1.138-.978.337-.444 1.149-1.16 1.287-1.135.073.014.1.05.091.131-.009.108-.076.198-.668.896-.185.217-.259.354-.221.409.048.07.117.032.436-.234.243-.203.406-.305.453-.285.04.018.044.053.007.079-.037.025-.045.05-.02.055.062.01.722-.685.757-.799.028-.09.739-.763.917-.868.055-.033.121-.029.147.009a.581.581 0 00.127.122c.075.051-.493.653-1.525 1.615a3.19 3.19 0 00-.422.482c-.077.12-.217.272-.31.337-.247.171-.527.525-.43.542.045.008.397-.192.782-.446s.699-.455.697-.446c0 .008-.09.147-.198.307-.188.28-.19.292-.028.273.127-.014.227-.08.4-.265.283-.301.326-.332.37-.268.02.027-.027.117-.103.198-.253.272-.14.298.218.05.208-.143.443-.254.58-.274.14-.02.268-.081.325-.155.121-.157 2.668-1.947 2.672-1.877.008.146.722-.35 1.26-.874 1.092-1.064 2.062-1.91 2.735-2.387.372-.263.91-.69 1.197-.95.286-.259.806-.706 1.156-.993.349-.287.644-.543.655-.568.011-.024.193-.188.405-.362.211-.175.463-.388.56-.473.2-.178 1.156-.921 1.86-1.447.51-.38 1.269-.98 1.773-1.4.168-.14.851-.648 1.517-1.127a47.462 47.462 0 001.725-1.294c.283-.232 1.1-.824 1.815-1.314 1.083-.742 1.32-.885 1.409-.848.09.038.107.028.103-.066-.002-.073.058-.136.18-.189.101-.044.192-.124.202-.18.01-.056.096-.162.19-.237a2.04 2.04 0 00.259-.244c.26-.323.58-.586.758-.623.143-.03.38-.275.299-.31-.03-.013.215-.22.545-.46.887-.646.974-.72 1.017-.876.036-.126.046-.129.095-.023.037.08.077.094.124.043.037-.042.123-.115.19-.162s.109-.105.093-.128c-.016-.023 0-.084.035-.136.047-.07.072-.065.091.013.018.074.038.08.064.018.021-.05.266-.26.544-.466.586-.434.497-.372 3.319-2.31 1.187-.815 2.298-1.605 2.468-1.755.17-.15.362-.285.426-.3.118-.03 1.947-1.191 2.487-1.58.422-.305 1.082-.389.874-.112-.03.041.024.06.134.047a.714.714 0 01.248.003c.123.05.621-.22.704-.381.052-.102.26-.27.615-.495.295-.188 1.254-.818 2.13-1.402.877-.583 1.664-1.086 1.75-1.118.085-.033.408-.228.716-.435.31-.206.63-.382.713-.39.149-.014.723-.265.792-.346.085-.1.283-.227.486-.31.121-.05.266-.13.322-.176l.206-.17c.056-.047.355-.217.664-.38a9.95 9.95 0 00.797-.458c.13-.09.28-.16.335-.157a.92.92 0 00.303-.077c.167-.07.192-.102.14-.177-.057-.082-.016-.12.358-.327.232-.13.818-.501 1.303-.826.484-.326 1.033-.654 1.219-.73.185-.077.35-.148.364-.158.015-.01.021.04.015.11-.006.071-.094.187-.195.257s-.177.137-.168.15a.65.65 0 01.042.132c.036.15.186.037.223-.168.022-.116.049-.146.099-.108.038.029.082.023.098-.012.016-.036.042-.046.06-.022.016.025.087.01.157-.034.07-.043.465-.27.879-.506a40.356 40.356 0 001.802-1.124c.578-.382 1.122-.724 1.208-.76.292-.12 1.778-.956 2.552-1.437 1.434-.89 2.622-1.42 3.001-1.336a.544.544 0 00.367-.054c.72-.465 1.751-1.07 2.224-1.305.198-.098.539-.28.758-.404.218-.124.536-.288.707-.363a8.49 8.49 0 00.33-.151c.01-.008-.024-.077-.077-.154zm-.343-.496c-.041-.06-.02-.08.093-.093.088-.01.157.025.172.087.02.08-.002.102-.093.094a.259.259 0 01-.172-.088zm-9.747 5.545c-.266.071-.262.066.21-.22 1.08-.658 1.426-.852 1.452-.814.05.07-1.376.958-1.662 1.034zm24.867-18.179c-.01-.012.021-.047.066-.078s.099-.033.119-.004c.02.029-.01.064-.067.078-.057.013-.11.015-.118.004zm-4.08 2.55c-.041-.018-.013-.072.064-.126.075-.052.168-.08.208-.063.04.018.012.072-.065.126-.075.051-.169.08-.208.063zm2.396-2.07c-.04-.057.022-.108.176-.145.173-.042.181.049.012.124-.085.038-.17.046-.188.02zM105.37 42.176c-.222.077-.261.074-.184-.01.121-.136 1.906-1.263 2.89-1.827.268-.153-1.646 1.25-2.059 1.51-.2.126-.492.273-.647.327zm-2.006 1.14c-.07.027.034-.06.23-.192.47-.316.689-.393.422-.148a1.29 1.29 0 01-.361.235c-.09.03-.221.077-.29.104zm34.801-24.056c-.114.074-.115.071-.024-.067.107-.162.255-.22.32-.127.024.034-.006.074-.066.089a.925.925 0 00-.23.105zm-35.651 24.577c-.024-.005.061-.088.19-.185.13-.097.273-.161.317-.142.056.025-.001.08-.191.185-.15.082-.291.146-.316.142zM59.439 72.69c-.044-.019.03-.098.195-.206.237-.155.252-.157.132-.02-.196.226-.247.261-.327.226zm83.47-58.939c.03-.043.077-.073.108-.068.03.005.007.04-.052.078-.065.042-.087.038-.055-.01zm-.693.374c-.134.04-.145.035-.058-.027a.78.78 0 01.249-.105c.18-.037.037.062-.19.132zm-.717.527a.181.181 0 01-.177-.07c-.057-.084-.03-.118.184-.23.272-.142.5-.163.305-.028-.064.045-.115.116-.113.159.005.09-.045.132-.199.17zM52.28 74.984c-.02-.03.005-.084.059-.12.082-.055.09-.049.05.045-.056.137-.063.142-.108.075zm85.68-62.563c.028-.043.076-.074.107-.068.03.005.007.04-.052.078-.065.041-.087.037-.056-.01zm.336-.468c-.062-.089.083-.204.335-.266.273-.067.262.026-.024.192-.174.1-.276.125-.312.074zm-.986.74c-.006-.126.173-.283.23-.201.031.045-.002.115-.087.173-.076.053-.14.066-.143.028zm.371-.347c-.088.002-.066-.033.085-.139.113-.078.221-.117.242-.087.048.07-.172.221-.327.226zM42.39 68.848a.066.066 0 01.11-.076.066.066 0 01-.11.075zm-1.099-.744a.255.255 0 01.136-.095c.048-.01.026.023-.049.075s-.114.06-.087.02zm.364-1.223a.946.946 0 01.245-.17c.076-.033.029.016-.106.109s-.198.12-.14.061zm2.216-2.184c-.016-.024.153-.212.376-.419.223-.206.452-.433.51-.504.065-.08.107-.1.11-.052.001.043-.191.258-.428.478-.238.221-.451.426-.474.457l-.054.068c-.005.007-.023-.005-.04-.029zm79.163-55.518c-.127.025-.126.017.003-.077.078-.058.176-.09.215-.074.085.038-.022.111-.218.151zM43.684 63.61c-.018-.025.195-.245.472-.487.624-.546.745-.632.724-.515-.01.05-.27.298-.582.553-.31.254-.568.47-.573.48-.005.008-.023-.005-.04-.03zM125.42 6.09c-.032-.014-.023-.05.02-.08.044-.03.094-.035.111-.01s.008.062-.02.081a.126.126 0 01-.11.01zm-7.363 4.946c.029-.043.077-.073.107-.068.031.005.007.04-.051.078-.066.042-.088.038-.056-.01zm8.41-5.925c-.02-.03.005-.084.059-.12.082-.056.09-.05.05.044-.056.138-.063.142-.108.076zm-.277.066c-.009-.014.008-.042.038-.062.03-.021.073-.011.095.02.022.031.004.059-.038.061-.043.003-.085-.006-.095-.02zm-3.37 1.77a6.11 6.11 0 00-.575.275c-.227.12-.517.252-.644.293a2.73 2.73 0 00-.228.079c.015.02-.44.162-.679.212-.364.075-.445-.004-.187-.183.133-.093.174-.157.134-.214-.058-.084-.325.051-.71.36-.168.135-.736.39-.898.402-.12.01.116-.237.47-.491.232-.165.457-.265.77-.338.242-.058.492-.14.554-.182.09-.06.104-.055.068.028-.024.058-.072.107-.106.108-.034.001-.046.027-.026.055.034.05.177.001.643-.215.111-.052.24-.07.285-.038.067.046.09.032.12-.073.031-.108.042-.11.065-.02.02.079.057.083.138.018.061-.05.208-.125.326-.166.15-.053.225-.113.249-.195.019-.067.049-.095.07-.065.042.06.576-.055.721-.156.052-.035.117-.03.145.01.039.056-.024.122-.245.258-.163.1-.37.208-.46.239zm-3.61-.425a.17.17 0 01.152-.056c.069.012.052.034-.055.073-.087.032-.128.024-.097-.018zM53.213 51.867c-.016-.023.043-.098.13-.167.09-.072.158-.095.16-.051.005.087-.249.278-.29.218zM118.666 6.07l-.14.09.093-.139c.103-.157.381-.283.439-.2.021.03-.027.078-.108.107-.08.029-.208.093-.284.142zM53.42 51.233c-.018-.025.005-.07.05-.102.045-.031.095-.036.113-.01.017.025-.005.07-.05.102-.045.031-.096.036-.113.01zm-.223.166c.029-.042.077-.073.107-.068.031.005.007.04-.051.079-.066.041-.087.037-.056-.01zm64.47-44.77c.029-.042.077-.073.108-.067.03.005.007.04-.052.078-.065.041-.087.037-.056-.01zm6.066-4.303a.067.067 0 01.017-.092.067.067 0 01.092.016c.02.03.013.072-.016.092a.067.067 0 01-.093-.016zm-1.516.838c-.042-.061.097-.078.18-.023.08.055.074.064-.035.055-.072-.007-.137-.02-.145-.032zm-.54.384c-.032-.045-.047-.089-.036-.097.012-.009.062.012.11.045s.064.077.035.097c-.03.02-.078 0-.11-.045zm-72.66 47.52c.029-.044.077-.075.107-.069.031.005.007.04-.052.078-.065.042-.087.038-.055-.01zm49.43-35.835a.072.072 0 01-.038-.094c.015-.036.067-.039.116-.005.095.065.03.147-.078.099zm42.064 5.493c.006-.06-.012-.094-.039-.077-.026.018-.02-.027.013-.098.085-.183-.091-.167-.37.034-.144.105-.17.143-.08.116.127-.039.3.047.213.105-.162.107-.327.116-.357.019-.03-.095-.036-.09-.047.04-.015.178-.416.486-.525.404-.056-.041-.078-.026-.107.076-.045.161.04.417.106.322.027-.037.017-.096-.02-.13-.048-.042-.02-.054.095-.039.131.017.26-.048.636-.321.3-.218.476-.383.482-.451zm.666-.638c.041-.096-.078-.193-.163-.133-.062.043-.01.234.062.23.033-.001.078-.045.1-.097zm-1.457.36c-.007-.14-.023-.148-.137-.08a9.802 9.802 0 01-.216.124c-.157.085-.15.154.02.193.213.05.342-.041.332-.238zM106.416 42.89c-.01-.013-.052-.022-.095-.02-.043.003-.06.03-.038.062s.065.041.095.02c.03-.02.047-.049.038-.062zm-.666.406c-.063-.012-.118.002-.123.03-.005.028.046.038.114.021.098-.024.1-.034.01-.051zM134.906 22.9c-.018-.027-.093-.053-.165-.06-.103-.008-.137.013-.153.1-.015.086.006.11.097.106.148-.006.265-.083.222-.145zM73.015 64.99c-.021-.03-.073-.03-.116 0-.044.029-.077.089-.075.131.003.043.055.043.116 0 .062-.042.096-.101.075-.131zm.887-.7c-.043-.062-.194.034-.19.12.001.033.053.032.114-.004.06-.035.095-.088.075-.116zm54.001-37.495c-.039-.162-.127-.129-.25.095-.066.116-.092.198-.058.182.253-.125.329-.192.308-.277zm-47.227 32.49c-.02-.03-.048-.047-.061-.037-.014.009-.023.051-.02.094.003.043.03.06.062.038.031-.022.04-.064.02-.095zm.754-.59c-.003-.055-.03-.104-.06-.11-.083-.014-.087.094-.006.155.057.043.07.034.066-.045zm-.193.149c.081-.122-.006-.173-.102-.06-.049.057-.074.125-.056.151.036.052.081.027.159-.091zm-26.324 17.81c.02-.105-.048-.154-.133-.095a.1.1 0 00-.026.138c.06.085.14.064.16-.042zm67.424-47.146c0-.033-.053-.032-.115.004-.061.037-.082.08-.045.095.082.036.165-.015.16-.098zm-.556.247a.18.18 0 00-.18-.002c-.05.031-.21.123-.354.203-.19.105-.23.145-.143.144.1-.001.107.008.044.052-.042.03-.05.06-.02.065.032.005.212-.083.4-.196.284-.173.326-.217.253-.267zm22.156-15.526c-.005-.093-.152-.087-.193.008-.036.08.073.15.149.098.027-.019.046-.066.044-.106zm-1.496-1.061c-.02-.028-.07-.05-.113-.047-.044.002-.038.03.014.066.102.069.153.059.098-.02zm-.42.249c-.03-.044-.066-.053-.08-.02-.015.034.003.074.039.09.093.041.105.021.041-.07zM42.097 72.034c.025-.06.02-.092-.01-.072a.399.399 0 00-.1.147c-.024.06-.02.093.01.072a.4.4 0 00.1-.147zm86.769-66.02c-.017-.024-.08-.01-.139.032-.06.042-.093.099-.074.127.02.028.082.014.14-.033.056-.046.09-.103.073-.126zm-2.837.779l.056-.192-.356.182c-.196.1-.486.27-.645.378-.158.107-.3.178-.314.157-.029-.042-.295.267-.307.358-.004.033.057-.006.138-.088a.64.64 0 01.363-.175c.12-.014.347-.112.507-.218.16-.106.303-.173.32-.15.054.079.18-.055.238-.252zm.698-.46c-.03-.005-.079.025-.107.068-.032.048-.01.052.056.01.059-.037.082-.072.051-.078zm.47-1.439c-.037-.06-.072-.082-.077-.052-.005.031.025.08.068.108.047.031.051.01.01-.056zm-1.805.572c-.032-.014-.038-.103-.013-.198.044-.17.038-.172-.403-.1-.53.088-.57.11-.471.252.046.068.112.084.171.044.078-.053.088-.046.053.037a.343.343 0 01-.157.153c-.062.027-.096.075-.075.105.022.03.115-.004.21-.077.093-.073.22-.163.283-.201.095-.057.106-.051.068.04-.038.094-.03.1.051.044.053-.036.113-.04.134-.01.02.03.076.028.123-.004.046-.032.058-.07.026-.085zm-1.001.042c.03-.072.013-.093-.086-.101-.139-.013-.165.1-.036.156.046.02.1-.004.121-.054zm.302-3.603c-.003-.043-.041-.053-.086-.022-.045.032-.08.092-.078.135.003.042.04.052.086.021.045-.03.08-.091.078-.134zm-1.286.528c-.144-.04-.182-.028-.134.042.019.027.085.037.147.022.095-.023.093-.034-.013-.063zm-77.655 52.43c-.108-.019-.491.173-.53.266-.024.054-.016.083.017.066.316-.17.556-.324.514-.331zm.285-.296c.025-.06-.02-.052-.126.022-.091.063-.152.135-.135.16.04.058.21-.06.261-.181zm1.353-1.039c.198-.214.738-.643 1.774-1.409.354-.262.678-.54.718-.62.044-.085.275-.273.576-.468.276-.179.498-.33.493-.338-.013-.019-.44.041-.478.067-.019.012-.001.037.038.054.041.018.002.08-.096.147-.091.063-.183.09-.204.06-.021-.03-.064-.036-.096-.014-.031.022-.017.058.03.08.066.029.058.04-.028.039a.421.421 0 00-.221.08 25.53 25.53 0 01-.389.29c-.156.115-.26.22-.23.232.03.013-.1.125-.288.248-.187.123-.368.277-.401.34-.04.079-.074.098-.102.058-.022-.033-.058-.02-.079.027-.02.047-.242.238-.493.423-.25.186-.453.34-.45.344.002.004-.113.099-.256.212a2.507 2.507 0 00-.266.228.723.723 0 01-.13.161c-.037.04.328.02.37-.019.012-.013.107-.113.208-.223zm2.02-1.8c-.018-.026.014-.08.072-.121.059-.04.134-.06.169-.046.034.015.002.07-.073.121-.074.051-.15.072-.168.046zm-3.025 1.86c-.003-.044.028-.081.068-.083.04-.002.055-.029.035-.058-.073-.106-.162-.047-.155.103.003.083.018.143.031.134.014-.01.023-.053.02-.096zm1.02-1.02c.017-.097.05-.173.074-.17.023.005.168-.066.321-.157.265-.157.5-.487.366-.511-.107-.02-.474.255-.508.382-.035.13-.187.238-.303.217-.097-.018-.367.187-.362.276.006.12.213.254.301.194.043-.03.093-.134.11-.231zm-.535.43c-.002-.053-.018-.058-.038-.012-.018.042-.066.063-.106.045-.108-.047-.165.016-.1.109.066.096.251-.011.245-.142zm63.455-44.506c-.031-.005-.08.025-.108.069-.031.047-.01.05.056.01.06-.037.083-.073.052-.078zm-12.069 6.062c-.02-.03-.048-.047-.061-.038-.014.009-.023.051-.02.094.003.043.03.06.062.038a.068.068 0 00.02-.094zm-1.267.885c.044-.125-.042-.204-.121-.111-.05.058-.106.064-.149.014a24.883 24.883 0 00-.134-.155c-.036-.042-.113-.047-.17-.013-.058.034-.127.07-.154.079l-.242.086c-.238.085-.402.08-.407-.012-.002-.038-.052-.036-.11.005-.06.04-.1.113-.09.162.015.06-.005.078-.065.06-.152-.05-.341.034-.38.166-.031.106-.039.11-.045.018-.005-.083-.023-.085-.076-.007a.703.703 0 01-.144.154c-.04.028-.056.107-.035.177.025.08-.003.14-.077.168-.164.06-.243-.085-.085-.156.125-.057.125-.057-.017-.035-.08.014-.229.08-.332.148a6.088 6.088 0 01-.557.3c-.528.253-1.815.947-2.386 1.285-.267.159-.602.355-.745.437-.302.172-.89.52-1.66.982-.297.178-.709.421-.915.54-.496.284-1.235.791-1.312.9a3.405 3.405 0 01-.264.288c-.112.111-.19.22-.175.242.015.022.13.059.255.082.186.034.279.005.5-.154.16-.116.278-.167.29-.127.01.037-.168.2-.397.363-.36.254-.553.492-.417.513.061.009.808-.456.785-.49-.011-.015.15-.136.36-.266.208-.131.504-.358.658-.504.153-.146.298-.262.322-.258.024.004.152-.06.285-.142.134-.083.323-.178.422-.213.107-.036.192-.104.21-.167.016-.058.262-.275.547-.483.353-.257.494-.388.443-.412-.042-.019-.011-.029.068-.023.1.007.206-.048.342-.178.13-.124.199-.161.201-.109.005.09.012.086.516-.243.2-.13.43-.255.514-.278.083-.023.138-.062.121-.086-.017-.025.03-.087.106-.14.075-.05.149-.075.164-.053.016.023.067.015.113-.017.047-.033.058-.071.025-.086-.08-.035.542-.332.625-.299.153.062 1.252-.53 1.18-.634a.07.07 0 01.017-.098c.032-.022.06-.007.062.032.006.114.165.076.2-.047.022-.083.05-.098.107-.059.05.034.154-.008.293-.115.119-.092.231-.145.25-.117.063.09.302-.163.286-.302-.008-.074.019-.136.06-.139.041-.002.077.026.078.06.003.036.05.054.105.041.055-.013.099-.059.097-.1-.003-.046.075-.083.198-.096.232-.022.823-.284.855-.379zm.61-.788c-.067-.095-.11-.087-.104.02.002.04.04.072.083.07.044-.004.053-.043.02-.09zm-.271.048a.168.168 0 00-.153.056c-.031.042.011.05.098.018.107-.04.123-.061.055-.073zM78.452 27.555c.058-.06.093-.127.077-.15-.046-.067-.258.133-.233.22.013.043.03.07.036.059.006-.012.061-.07.12-.129zm1.044-.908c-.194.04-.28.1-.136.095a.42.42 0 00.198-.064c.053-.039.032-.05-.062-.03zm-.326.234c-.002-.04-.044-.024-.093.033-.105.122-.095.17.018.092.043-.03.076-.087.074-.125zm6.932-4.98c.027-.145-.017-.124-.693.338-.397.27-.784.52-.86.553-.075.034-.136.09-.134.126.003.036-.075.112-.171.17-.26.154-.206.234.059.086.124-.07.202-.139.172-.151-.095-.042.008-.073.152-.047.157.03.399-.114.393-.231-.002-.052.045-.084.142-.095.166-.019.249-.142.131-.193-.051-.023-.04-.036.032-.039.06-.003.254-.085.43-.183.252-.14.326-.212.348-.334zm-4.327 3.088c-.02-.03-.048-.047-.061-.037-.014.009-.023.051-.02.094.003.043.03.06.062.038a.068.068 0 00.02-.095zm2.106-1.617c.027-.066.019-.092-.02-.066a.154.154 0 00-.062.122c.005.097.024.084.081-.056zM62.583 38.097c-.06-.026.11-.223.182-.21.099.018.349-.139.31-.195-.024-.035.126-.15.407-.315.345-.202.474-.31.574-.481.07-.122.095-.181.055-.133-.042.049-.098.073-.125.053-.028-.019-.092-.018-.144.003a.281.281 0 01-.172.012c-.043-.015-.04.028.004.093.078.114.07.122-.122.146-.183.023-.205.04-.214.172-.01.14-.01.142-.042.03-.026-.091-.064-.097-.165-.027-.073.05-.127.152-.122.225.005.075-.01.104-.038.067-.051-.07-.233.016-.184.087.015.022-.158.168-.386.323s-.413.31-.411.345c0 .034-.05.099-.114.143-.093.065-.093.085 0 .102.115.021.795-.402.707-.44zm-.896.618c-.018-.025-.051-.035-.075-.02a10.44 10.44 0 01-.234.122c-.235.12-.247.267-.013.162.23-.104.36-.21.321-.264zm3.799-2.898c-.02-.03.055-.118.167-.196.112-.078.24-.13.282-.115.052.019.065.008.041-.028-.046-.069.27-.311.317-.243.018.028.047.02.062-.015.03-.069.474-.452.964-.832.158-.124.284-.23.28-.237-.026-.036.691-.533.762-.528.127.009.704-.323.664-.382-.02-.028.002-.076.046-.107.045-.031.098-.033.118-.004.023.033.414-.223 1.041-.68.552-.404 1.064-.774 1.136-.824.073-.05.198-.17.28-.266.088-.106.16-.156.181-.127.034.05.22-.09.235-.178.006-.025.25-.2.547-.388.356-.228.548-.384.57-.461.026-.091.044-.101.085-.043.034.047.053.043.053-.011 0-.05.293-.29.732-.6a677.96 677.96 0 002.7-1.925 536.231 536.231 0 013.094-2.198c.62-.434 1.116-.805 1.103-.824-.013-.019.111-.127.276-.241.165-.114.313-.19.328-.167.016.023.054.023.086.001.032-.022.026-.054-.013-.071-.04-.017-.033-.058.014-.09.047-.032.068-.083.047-.113-.02-.03-.01-.073.02-.095.032-.022.06-.004.062.038.002.046.077.027.184-.048.136-.095.15-.125.061-.122-.087.002-.1-.009-.047-.047.055-.039.04-.056-.067-.076a.385.385 0 00-.25.053c-.063.043-.132.052-.154.02-.024-.034-.077-.01-.13.059-.062.078-.093.089-.096.03-.003-.047-.019-.076-.037-.063-.017.012-.016.085.004.163l.037.14-.222-.013c-.152-.009-.22.014-.218.074.003.062-.023.075-.092.045-.079-.035-.462.211-2.046 1.31-1.073.743-2.38 1.673-2.907 2.066a670.07 670.07 0 01-1.944 1.443c-1.96 1.449-2.46 1.828-2.485 1.887-.058.132-.459.49-.554.495-.058.003-.1.046-.098.1.002.07-.025.084-.107.05-.061-.024-.094-.02-.074.01.023.035-.302.286-.88.68-.916.624-2.41 1.789-2.37 1.847.01.017-.172.16-.406.317-.403.27-1.268.979-1.395 1.143-.047.06-.034.081.067.11.102.028.108.04.033.063a4.22 4.22 0 00-.267.1c-.109.045-.181.038-.19-.016-.01-.048-.016-.03-.02.041-.003.105-.067.162-.335.298-.188.096-.357.219-.391.286a.87.87 0 01-.209.23c-.137.105-.137.109 0 .048.116-.051.14-.043.106.036-.047.112.028.07.804-.45.27-.183.439-.327.416-.36zm15.505-11.453c-.014-.057.006-.105.044-.107.11-.005.15.093.061.155-.049.033-.09.015-.105-.048zm3.308-2.014c-.128-.066-.133-.08-.036-.104.098-.024.093-.038-.034-.103l-.148-.076.03.16c.034.182-.064.28-.194.192-.048-.033-.068-.074-.044-.09.025-.017.018-.068-.013-.113-.046-.067-.102-.042-.296.134-.164.149-.253.198-.282.156-.024-.034-.13-.002-.237.073-.127.088-.167.146-.115.168.056.025.033.04-.078.053-.13.015-.142.029-.068.079.05.034.112.046.138.027.027-.018.066-.009.087.02.078.115-.065.117-.24.006-.202-.13-.204-.13-.29.037-.044.085-.025.157.062.243.068.067.098.13.065.139-.032.009-.054.05-.049.09.005.042.153-.022.36-.158.321-.21.349-.243.32-.4-.03-.17.132-.366.21-.254.022.032.005.06-.037.062-.043.003-.039.03.01.064.052.034.114.02.151-.033.042-.06.065-.062.068-.004.005.1.223.028.417-.14a.632.632 0 01.26-.13c.119-.019.117-.028-.016-.097zm-1.633.827c-.033-.014-.025-.05.018-.079.042-.03.078-.024.08.012.002.035-.006.071-.017.079-.012.008-.048.003-.08-.012zm2.375-1.325c-.002-.037-.062-.047-.132-.022-.086.031-.137.01-.155-.064-.015-.06-.05-.093-.078-.074-.075.052.06.222.196.246.138.026.174.007.169-.086zm-.44.08c-.042-.03-.085-.048-.093-.042-.01.007-.006.052.006.103.012.05.054.07.093.042.04-.027.036-.074-.006-.103zm-.315-.007a.542.542 0 00-.282.074c-.131.089-.157.228-.04.222.039-.002.061-.038.05-.08-.017-.059.016-.082.136-.096.23-.026.326-.112.136-.12zm.719-.508c-.03-.005-.08.025-.107.068-.032.047-.01.051.055.01.06-.037.083-.073.052-.078zm-2.89 1.967c.04-.094.032-.1-.05-.044-.053.035-.08.09-.059.12.046.066.052.062.11-.076zm.236-.286c-.022-.085-.038-.08-.094.028-.08.155-.063.204.043.13.042-.029.065-.1.05-.158z" fill="#f53994"/></svg>