<svg version="1.0" xmlns="http://www.w3.org/2000/svg" width="1477.333" height="1477.333" viewBox="0 0 1108 1108"><path d="M953.9 108.5c-4.9 1.3-23.4 9.6-32.9 14.8-3 1.6-12.3 6.7-20.7 11.3-8.3 4.6-15.4 8.4-15.8 8.4-.3 0-2.1 1.1-3.8 2.4-4.7 3.5-18.5 11.4-31.7 18-6.3 3.2-12.4 6.7-13.5 7.7-1.2 1-9.9 5.2-19.3 9.4-9.5 4.1-24.1 10.7-32.5 14.6-39.7 18.7-39.7 18.7-39.7 20.8 0 1.1-.4 2.2-1 2.6-1.7 1 .2 3.5 2.7 3.5 1.3 0 2.2.4 1.8.9-.3.5-6.3 4-13.3 7.7-7 3.7-16.7 9-21.7 11.9-4.9 2.9-13.3 7.7-18.5 10.7-19 11-31 18.8-34.7 22.5-2.1 2.1-7.8 6-12.7 8.8-4.8 2.7-14.7 8.9-21.9 13.7-7.3 4.9-13.8 8.8-14.6 8.8-1.7 0-10.1-4.1-10.1-4.9 0-.3 1.9-1.8 4.3-3.3 2.3-1.5 5.8-4.1 7.7-5.8 1.9-1.7 4.6-3.9 5.9-5 1.3-1.2 2.1-2.3 1.8-2.6-.7-.8-5.7.7-5.7 1.7 0 .5-.6.9-1.4.9-.8 0-5.4 2.6-10.3 5.8l-8.9 5.9-20.9-8.9c-28.1-12-44.7-18.9-46.5-19.3-.8-.2-4.9-1.8-9-3.5s-8.2-3.3-9-3.5c-.8-.2-5.3-1.8-10-3.5-4.7-1.8-9.2-3.3-10-3.5-.8-.2-4.2-1.3-7.5-2.4-7.1-2.3-23-6.8-26.5-7.4-1.4-.3-5.4-1.2-9-2-11.1-2.7-18-3.8-37.5-6.2-5.8-.7-44.9-.8-47.3-.1-1 .3-5.1.7-9.2 1-32 2.5-71 12.1-103 25.5-42.2 17.7-63.8 28.1-84.5 40.4-12 7.2-26.8 17-31.1 20.6-1.7 1.4-5.3 4.4-8 6.6-5.7 4.7-22.9 21.9-29.4 29.4-2.5 2.9-5.2 6.1-6.1 7-3 3.2-15.7 19.8-21.1 27.6-7.7 11.1-21.9 34.5-21 34.5.4 0 .2.4-.4.8-1.9 1.3-16.1 31.5-21.2 45.3-4.6 12.2-6.5 17.9-10.7 31.9-1.4 4.6-7 28-8 33.5-.9 5.4-2.6 15.9-2.9 19.5-.2 1.9-.7 5.5-1 8-1.1 9-1.6 15.7-2.2 25.2-.5 8.7-.3 9.7 1.3 10.1 1.7.4 1.7.5 0 .6-1.6.1-1.8 1.1-1.6 9.8.2 10.5 1.5 23.7 3.4 33.3.3 1.3.7 4.2 1 6.5 1.7 12 11.6 44.3 21.8 71.5 4.4 11.5 29.9 71.6 32.5 76.5.9 1.6 1.7 3.2 1.7 3.5.1.3 1.6 3.4 3.3 7 16.3 33.9 38.7 62.1 72.7 91.4 18.3 15.8 44.6 35.1 53.5 39.2.8.4 2.6 1.5 4 2.4 5.1 3.5 23.9 12.9 36.5 18.3 11.9 5.1 39.5 14.8 45.5 16.1 1.4.3 7.5 1.9 13.5 3.6 11.8 3.3 46.5 10.4 55.5 11.5 3 .3 6.9.9 8.5 1.1 13.8 2.3 31.6 3.2 56.5 2.9 15.1-.2 28.6-.6 30-.9 1.4-.2 6.3-.7 11-1 4.7-.4 11.2-.9 14.5-1.2 6-.5 36.7-4.9 41.5-5.9 1.3-.2 4.1-.7 6.1-1 2.1-.3 9.3-1.9 16.1-3.6 6.8-1.7 12.8-3.2 13.3-3.3.6-.1 3.7-1.1 7-2.1s6.5-2 7-2.1c3.7-1 14.1-5.1 20-7.9 17.8-8.6 32.4-21.1 47-40.5 4.4-5.8 8.3-10.6 8.7-10.8.5-.2.8-1 .8-1.7s.4-1.5.8-1.7c.5-.2 2.8-3 5.2-6.3 5.1-7 8.9-11.5 17.9-21 36.1-37.9 55-73.4 96.6-181 2.4-6.2 10-28.6 11.1-32.5 8.3-30.9 8.8-34.2 8.8-59 0-17.5-.2-20.2-3.8-38.5-.2-1.1-1.1-4.7-2-8-.9-3.3-1.9-7.1-2.2-8.5-.9-4.8-15.4-50.8-25.2-80.3-2.5-7.5-4.3-13.9-4.1-14.1 2.3-2.2 26.5-17.1 33.7-20.7 5-2.6 10.4-5.6 12-6.7 1.5-1.1 6.1-3.7 10.2-5.8 4.1-2.2 8.2-4.6 9-5.5 1.9-2.1 20.9-13.9 22.4-13.9.6 0 .5.5-.2 1.2s-1.2 1.9-1.2 2.7c.1 1.4.2 1.4 1.3 0 .7-.9 2.2-1.9 3.3-2.3 1.2-.4 6.8-3.6 12.5-7.2 12.7-8.1 43.6-25.9 50.4-29 2.8-1.3 6.1-2.4 7.5-2.4 1.4 0 7.2-2.7 13-6s12.8-7.2 15.7-8.8c5-2.6 5.3-2.9 5.3-6.6 0-3-.7-4.7-2.7-6.8-1.5-1.5-2.1-2.8-1.5-2.8.7 0 1.2-.6 1.2-1.3 0-2-10.6-.5-15.8 2.1-6.3 3.3-16 5.6-17.7 4.2-1-.8-3.3-.2-9.6 2.9-4.6 2.2-8.5 3.8-8.8 3.5-.6-.6-1.3-.1 14.9-10.8 8-5.2 15.3-10.6 16.2-12 1-1.3 7-5.9 13.5-10.1 17.6-11.6 35.8-20.8 47.8-24.2 1.1-.3 4.7-1.8 7.9-3.4 3.3-1.6 6.6-2.9 7.5-2.9.9 0 3.1-.9 4.9-2 1.8-1.1 4.4-2 5.9-2 3.3 0 16.5-7.1 21.5-11.6 4-3.6 10.8-7.4 13.2-7.4 3.5 0 2.2 2-2.3 3.5-2.7.9-5.2 2.2-5.5 3-.3.8-1.4 1.2-2.8.9-1.3-.2-.9.1.9.7 2.8 1 3.7.8 9.2-2.6 3.4-2 6.1-4 6.1-4.4 0-.4 1.9-2.1 4.3-3.8 4.9-3.6 17.7-16.2 17.7-17.6 0-.9-1.7-.7-5.4.8-3 1.3-.9-1.3 6.6-8.3 6.2-5.7 18.8-14.6 27.9-19.7 14.9-8.4 18.8-10.8 20.3-12.4 3.2-3.6-.3-3.3-9.5.8-8.6 3.9-12.1 5-10.6 3.4.4-.3-.4-1.4-1.8-2.3l-2.6-1.7 5-3.4c9-6.1 5.5-6.7-7.1-1.3-4.6 1.9-8.9 3.8-9.6 4.1-.8.4-1 0-.5-1.2.6-1.6.1-1.7-3.8-1.2l-4.4.5 4.4-3.9c2.4-2.2 6.5-5.1 9.1-6.5 3.8-2.1 4.7-3.1 4.6-5 0-1.3-.5-2.4-1-2.4-.6 0-.5-.5.2-1.2s1.2-1.8 1.2-2.5c0-2.1-7.6 1.5-20 9.6-2.6 1.7-2.6 2-.3-3.5.5-1.4-.1-1.6-4-1.3-3.8.3-4.7.1-4.7-1.2 0-2.3 1.9-3.6 8.5-5.9 6.3-2.2 13.4-6.2 11.8-6.7-.5-.2-4 1-7.7 2.7-3.7 1.6-7.1 3-7.4 3-2 0 6.1-6.3 12.3-9.6 7.5-3.9 9.7-6.2 5-5-3.4.9-3.1 0 .7-2 2.8-1.4 3-1.8 1.6-2.8-1.4-1-1.3-1.5.8-3.9 5.9-6.9 1.4-6.2-15.4 2.2-16 8-18.5 8.9-17.6 6.7.8-2.1-1.3-2-7.8.3-6.8 2.5-12.8 3.5-12.8 2.2 0-.5.5-1.3 1-1.6 1.7-1.1 0-2.6-2.2-1.9-3 .9 5-6.9 9.2-9.1 4.2-2.1 7.1-4.5 6.6-5.4-.6-.8-11.8-.6-17.8.3-2.7.5-5.4.4-6.4-.2-1.2-.7-3.2-.3-7.3 1.5-9.4 4.3-21.5 9-25.5 10.2l-3.9 1 2-2.2c5.7-6.3 2.8-5.6-4.9 1.3-3.3 2.9-4.8 3.7-4.8 2.6 0-1.3-1.4-.9-7.1 1.9-5.1 2.6-7.4 3.3-8.3 2.6-.7-.6-1.6-.8-1.9-.4-.4.3-.7.4-.7 0 0-.3 2.8-2.5 6.3-4.8 7.2-4.8 8.7-6.5 8.7-9.5 0-1.3 1.1-2.9 2.7-4 4.7-3 .8-2.7-5.6.5-3.3 1.7-6.7 3.1-7.5 3.1-.9 0-2.2 1.1-3.1 2.4-.8 1.3-5.8 4.5-11.1 7.2-8 4.1-9.6 4.7-10.4 3.4-2.8-4.4-2.6-4.4-7.6-.9-2.7 1.9-8.7 5.3-13.4 7.6-7.3 3.6-8 3.8-5.3 1.5 6.4-5.4 35.9-22.6 40.8-23.8 1.7-.3 4.4-1.7 6.2-3 1.7-1.3 3.6-2.4 4.2-2.4 1.7 0 4.4-4.8 3.7-6.6-.5-1.3-1.5-1.5-4.9-1-3.9.7-7.6 2.6-4.9 2.6 2.2 0 1.2 1.9-1.8 3.5-1.6.8-4.8 1.5-7 1.5-2.3 0-5 .5-6.1 1-1.6.9-1.9.7-1.9-1 0-2.4-.3-2.4-3.9-.5-1.6.8-3.1 1.2-3.4.8-.4-.3-1.8.2-3.1 1.1-1.4.9-3.1 1.6-3.7 1.6-1.2 0 4.9-4.9 10.4-8.3 3-2 3.4-3.8 1.2-5.7-1.3-1.1-1.9-.9-3.8.7-1.2 1-3.4 2.4-4.9 3.1-2.3.9-2.6.9-2.1-.3.7-2-3.3-2-8.2.1-2 .8-3.9 1.3-4.1 1.1-.6-.5 11.5-9.3 17.6-12.9 9-5.2 15-9.7 13.9-10.3-.6-.4-2.1.2-3.3 1.4-1.2 1.2-2.8 2.1-3.5 2.1-.7 0-2.5.8-3.9 1.8-2.2 1.5-10.4 5.6-19.7 9.9-.5.3.1-.4 1.5-1.6 2.6-2.1 21-12.4 38-21.3 8.9-4.7 13.7-7.9 11.5-7.7-.6 0-3.1.7-5.6 1.4zm-20.9 48c0 1-16.4 8.4-20 9.2-3.2.6-3.4.5-2.1-1 1.9-2.4.7-2.1-4.5.9-2.5 1.5-4.7 2.4-5 2.1-.7-.7 4.6-4.7 6.5-4.9.9 0 2.7-.2 4.1-.3 3.8-.4 11.3-2.5 13.5-4 1.8-1.1 4.3-2 6.8-2.4.4 0 .7.1.7.4zm115.5 39.5c-.3.5-1.2 1-1.8 1-.7 0-.6-.4.3-1 1.9-1.2 2.3-1.2 1.5 0zm21.7 21.2c-.7.7-1.2.8-1.2.2 0-1.4 1.2-2.6 1.9-1.9.2.3-.1 1.1-.7 1.7zM861 394.5c0 .2-1 .9-2.2 1.5-2.2 1.1-2.2 1-.4-.4 2.1-1.7 2.6-1.9 2.6-1.1zm-50.5 22.3c-2.9 2.4-8.4 6.1-11.5 7.7-4.9 2.4-2.7.5 4.9-4.4 5.9-3.8 8.9-5.3 6.6-3.3z"/><path d="M941.6 146.8c-1 1.6 1 3 3.7 2.5 3.7-.7 3.5-3.3-.2-3.3-1.7 0-3.2.4-3.5.8zM947.3 160c-5.8 3.3-6.5 4.1-3 3.2 3.1-.8 8.7-4.2 8.7-5.3 0-1.2.2-1.3-5.7 2.1zM725 222.7c-3.7.6-9 3.6-9 5 0 .7-.9 1.3-1.9 1.3-2.3 0-18.3 8.5-39.5 21-17.1 10.1-24.3 15.7-22.7 17.3.7.7 1.9.7 3.8-.1l2.8-1.2-3 2.4c-4.6 3.9-2.3 4 3.1.2 2.7-1.9 7.4-5.2 10.4-7.3 3-2.1 7.5-5.4 10-7.4s6.5-4.7 9-5.9c2.5-1.3 6.4-3.6 8.7-5.2 2.4-1.6 6.1-3.5 8.4-4.3 2.3-.9 5.8-2.5 7.8-3.7 5.4-3.4 9-5.4 15.1-8.3 4.2-2 5.1-2.8 4-3.5-1.5-1-2.6-1-7-.3zM1053.5 261.9c-.6 1.1.9 2.3 1.9 1.4.9-.9.7-2.3-.3-2.3-.6 0-1.2.4-1.6.9zM1059 263.3c0 .8-1.6 2.2-3.5 3.3-1.9 1-3.5 2.2-3.5 2.6 0 1.5 2.4.8 6.2-1.8 3.9-2.7 5-5.4 2.3-5.4-.8 0-1.5.6-1.5 1.3zM644 276c-6.3 4.3-10 8-5.9 5.7 4.6-2.4 12.9-8.2 12.9-9 0-1.3-1.4-.6-7 3.3zM634.6 273.9c-.4.5-.3 1.1.1 1.4.5.2.3.2-.4.1-1.4-.3-5.8 1.8-9 4.3-3 2.4-1.7 5.1 1.6 3.4 1.1-.7 2.1-1.8 2.1-2.6s.9-1.5 2.1-1.5c3.2 0 5.9-1.9 5.9-4s-1.5-2.7-2.4-1.1zM965 310.1c0 .5.5.7 1 .4.6-.3 1-.8 1-1.1 0-.2-.4-.4-1-.4-.5 0-1 .5-1 1.1zM917 333c-.8.5-1.2 1.2-.9 1.5.8.8 3.9-.5 3.9-1.6s-1.1-1.1-3 .1z"/></svg>